<svg width="156" height="156" viewBox="0 0 156 156" fill="none" xmlns="http://www.w3.org/2000/svg">
<g opacity="0.2">
<path d="M137.074 84.8382C143.205 94.5424 140.049 107.459 129.972 113.205C127.896 114.386 125.683 115.158 123.429 115.54C117.571 116.537 111.929 118.538 106.907 121.712L105.551 122.566C100.379 125.833 95.9236 130.108 92.4066 135.115C90.7481 137.484 88.5397 139.536 85.8406 141.076C76.8324 146.205 65.2293 143.585 59.2996 135.082C55.3904 129.476 54.7189 122.653 56.8105 116.737C59.8231 108.24 59.8124 98.9539 57.1434 90.3432C54.038 80.3414 53.7917 67.8931 66.5256 59.8486C79.1307 51.8899 90.292 57.5011 98.0365 64.5938C104.742 70.7409 113.268 74.5042 122.303 75.5514C128.165 76.2304 133.68 79.4603 137.074 84.8382Z" fill="#9022FF"/>
<path d="M45.7807 90.3023C51.3061 99.0539 49.9445 109.839 42.7371 114.39C35.5297 118.942 25.2074 115.538 19.6819 106.786C14.1516 98.034 15.5132 87.2493 22.7206 82.6975C29.9281 78.1452 40.2551 81.5512 45.7807 90.3023Z" fill="#9022FF"/>
<path d="M48.5443 40.3102C54.0698 49.0618 52.7081 59.8465 45.5008 64.3983C38.2934 68.9501 27.971 65.5457 22.4455 56.7941C16.9153 48.0414 18.2817 37.2578 25.4891 32.7059C32.6965 28.1541 43.0187 31.559 48.5443 40.3102Z" fill="#9022FF"/>
<path d="M102.64 54.3914C108.17 63.1441 118.492 66.5485 125.7 61.9967C132.907 57.4448 134.269 46.6597 128.743 37.9085C123.213 29.1558 112.89 25.7514 105.683 30.3032C98.4757 34.8551 97.114 45.6402 102.64 54.3914Z" fill="#9022FF"/>
<path d="M56.3137 35.4047C61.8392 44.1563 72.1616 47.5607 79.3689 43.0089C86.5763 38.457 87.938 27.6724 82.4125 18.9207C76.887 10.1691 66.5646 6.76469 59.3573 11.3165C52.1499 15.8683 50.7834 26.6524 56.3137 35.4047Z" fill="#9022FF"/>
</g>
</svg>
